<?xml version="1.0" standalone="no"?><!DOCTYPE svg PUBLIC "-//W3C//DTD SVG 1.1//EN" "http://www.w3.org/Graphics/SVG/1.1/DTD/svg11.dtd"><svg class="icon" width="200px" height="157.18px" viewBox="0 0 1303 1024" version="1.1" xmlns="http://www.w3.org/2000/svg"><path fill="#333333" d="M584.268566 131.385554H1270.885046a32.553408 32.553408 0 0 0 0-65.106815H584.268566a32.553408 32.553408 0 0 0 0 65.106815zM584.268566 406.852492H1270.885046a32.553408 32.553408 0 0 0 0-65.106815H584.268566a32.553408 32.553408 0 0 0 0 65.106815zM584.268566 682.254323H1270.885046a32.553408 32.553408 0 0 0 0-65.106815H584.268566a32.553408 32.553408 0 0 0 0 65.106815zM584.268566 957.721261H1270.885046a32.553408 32.553408 0 0 0 0-65.106815H584.268566a32.553408 32.553408 0 0 0 0 65.106815zM367.85351 470.071211H102.152594A102.282808 102.282808 0 0 1 0 367.85351V102.152594A102.282808 102.282808 0 0 1 102.152594 0H367.85351a102.282808 102.282808 0 0 1 102.217701 102.152594V367.85351a102.282808 102.282808 0 0 1-102.217701 102.217701zM102.152594 65.106816A37.110885 37.110885 0 0 0 65.106816 102.152594V367.85351a37.175992 37.175992 0 0 0 37.045778 37.110885H367.85351a37.175992 37.175992 0 0 0 37.110885-37.110885V102.152594A37.110885 37.110885 0 0 0 367.85351 65.106816zM367.85351 1024H102.152594A102.282808 102.282808 0 0 1 0 921.782299v-265.635809a102.282808 102.282808 0 0 1 102.152594-102.217701H367.85351a102.282808 102.282808 0 0 1 102.217701 102.217701v265.635809a102.282808 102.282808 0 0 1-102.217701 102.217701z m-265.700916-404.964395a37.175992 37.175992 0 0 0-37.045778 37.110885v265.635809a37.175992 37.175992 0 0 0 37.045778 37.110885H367.85351a37.175992 37.175992 0 0 0 37.110885-37.110885v-265.635809a37.175992 37.175992 0 0 0-37.110885-37.110885z" /></svg>